<?xml version="1.0" encoding="utf-8"?>
<!-- Generator: Adobe Illustrator 27.9.0, SVG Export Plug-In . SVG Version: 6.00 Build 0)  -->
<svg version="1.1" id="Layer_1" xmlns="http://www.w3.org/2000/svg" xmlns:xlink="http://www.w3.org/1999/xlink" x="0px" y="0px"
	 viewBox="0 0 96 96" style="enable-background:new 0 0 96 96;" xml:space="preserve">
<style type="text/css">
	.st0{fill:#660033;}
	.st1{fill:#94BEE5;}
	.st2{fill:#FFFFFF;}
	.st3{fill:#FFE600;}
</style>
<g>
	<path id="Path" class="st0" d="M14.1,0.1v72.5c0,11.1,13.1,14.8,22.7,17.4c1.9,0.5,3.7,1,5.3,1.6c1,0.3,1.9,0.8,2.7,1.3
		c1.1,0.7,2.3,2,2.3,2l0.9,1l0.9-1c0,0,1.2-1.3,2.3-2c0.9-0.5,1.8-1,2.7-1.3c1.6-0.5,3.4-1,5.3-1.6c9.6-2.7,22.7-6.3,22.7-17.4V0.1
		H14.1z"/>
	<path id="Path_00000093887649514704710840000015892248131264314553_" class="st1" d="M79.5,72.6c0,9.3-11.6,12.5-20.9,15.1
		c-1.9,0.5-3.8,1.1-5.4,1.6c-1.2,0.4-2.3,0.9-3.3,1.6c-0.6,0.4-1.3,0.9-1.8,1.5c-0.6-0.5-1.2-1-1.8-1.5c-1-0.7-2.1-1.2-3.3-1.6
		c-1.6-0.5-3.5-1-5.4-1.6c-9.3-2.6-20.9-5.8-20.9-15.1V2.5h62.9V72.6z"/>
	<polygon id="Path_00000141457753059524860950000013265119459864788097_" class="st2" points="24.3,30.3 26.4,29.2 28.4,30.3 28,28 
		29.6,26.4 27.4,26.1 26.4,24 25.3,26.1 23.1,26.4 24.7,28 	"/>
	<path id="Path_00000054240031195745603440000018425586304689209737_" class="st0" d="M48,6.1c-0.6,0-1.3,0.1-2,0.1
		c-0.8,0-1.6,0-2.6-0.1c-0.3,0.1-0.3,0.6-0.1,0.7L44,7c0.5,0.1,0.7,0.2,0.7,0.4c0,0.3-0.1,0.5-0.2,0.8c-0.3,0.7-1.2,3.1-1.7,4.4
		l-0.8,2c-0.3,0.6-0.6,1.4-0.8,1.7l-0.7-1.8l-1.9-4.8c-0.5-1.3-0.8-2.2-0.8-2.3c0-0.2,0.1-0.3,0.5-0.4L39,6.8c0.1-0.2,0.1-0.6,0-0.7
		c-1.3,0-2.2,0.1-3.2,0.1c-1.1,0-1.8,0-2.9-0.1c-0.2,0.1-0.3,0.5-0.1,0.7L33.6,7c0.7,0.2,0.8,0.2,1.6,2.3l3.4,8.6
		c0.3,0.7,0.7,1.8,0.9,2.4c0.2,0.1,0.4,0.2,0.6,0.2c0.3,0,0.5-0.1,0.7-0.2c0.5-1.2,1-2.9,2.1-5.4l1.6-3.7c0.7-1.7,1.3-2.9,1.7-3.6
		c0.3-0.4,0.6-0.6,1.2-0.7l0.6-0.1C48.2,6.7,48.2,6.2,48,6.1"/>
	<path id="Path_00000110429292948839899710000005076396122262047383_" class="st0" d="M57.4,6.1h-4.7c-1,0-2.1,0-3-0.1
		c-0.2,0.1-0.2,0.6,0,0.7L50,6.9c1,0.2,1.1,0.3,1.1,2.3v7.9c0,2-0.1,2.1-1.1,2.3l-0.7,0.1c-0.2,0.1-0.2,0.6,0,0.7
		c1.3,0,2.3-0.1,3.3-0.1c1,0,2.1,0,3.4,0.1c0.1-0.1,0.1-0.6,0-0.7l-0.8-0.1c-1-0.1-1.1-0.3-1.1-2.3v-2.9c0-0.6,0-0.6,0.6-0.6h1.9
		c1.1,0,1.4,0.2,1.6,1.2l0.1,0.5c0.1,0.2,0.7,0.2,0.8,0c0-0.6-0.1-1.4-0.1-2.2c0-0.8,0-1.6,0.1-2.3c-0.1-0.2-0.7-0.2-0.8,0l-0.1,0.5
		c-0.2,1-0.4,1.2-1.6,1.2h-1.9c-0.6,0-0.6-0.1-0.6-0.6V8c0-0.8,0-0.9,0.7-0.9h1.9c1.1,0,1.7,0.3,2.1,0.7c0.2,0.3,0.4,0.8,0.6,1.7
		c0.3,0.2,0.7,0.1,0.8-0.1c0-1.4,0-3,0-3.3C60,6.1,58.7,6.2,57.4,6.1"/>
	<path id="Path_00000073000383281389073300000008311653077080311228_" class="st0" d="M75.1,16.2c-0.6,1.4-1.8,3.3-4.3,3.3
		c-2.6,0-5-2.3-5-6.5s2.5-6.2,4.9-6.2c2.1,0,3.4,1.1,4,3c0.1,0.2,0.7,0.1,0.8-0.1c-0.2-1.1-0.3-2.2-0.3-3.3c-0.6,0-2.2-0.6-4.4-0.6
		c-2.2,0-4.4,0.6-5.9,1.9c-1.5,1.2-2.6,3-2.6,5.6c0,2.6,1.2,4.4,2.7,5.6c1.5,1.1,3.6,1.6,5.7,1.6c1.7,0,3.2-0.5,4.3-0.8
		c0.3-0.5,0.7-1.8,0.8-3.3C75.8,16.1,75.3,16.1,75.1,16.2"/>
	<path id="Shape" class="st0" d="M33.5,19.3c-0.8-0.1-1-0.6-1.4-1.9l-2.9-8.3c-0.5-1.5-0.8-2.3-1-2.9c-0.1-0.3-0.2-0.4-0.5-0.4
		c0,0-0.7,0.9-1.6,1.2l-0.5,1.4c-0.1,0.2-0.2,0.4-0.2,0.7l-0.3,0.7v0L23.2,15c-0.6,1.5-1,2.5-1.3,3.4c-0.4,0.9-0.8,1-1.3,1.1
		L20,19.5c-0.1,0.2-0.2,0.6,0.1,0.7c1,0,1.5-0.1,2.2-0.1c0.9,0,1.7,0,2.4,0.1c0.2-0.1,0.2-0.6,0-0.7l-0.6-0.1
		c-0.6-0.1-0.9-0.2-0.9-0.4c0-0.3,0.1-0.5,0.1-0.8l0.8-2.5c0.1-0.4,0.2-0.4,0.7-0.4h2.5c0.7,0,0.9,0,1,0.4l0.6,1.8
		c0.3,0.8,0.4,1.3,0.4,1.4c0,0.1-0.1,0.3-0.6,0.4l-0.7,0.1C28,19.6,28,19.7,28,19.9c0,0.1,0.1,0.3,0.2,0.4c1,0,1.8-0.1,2.9-0.1
		c1.1,0,2.2,0,3.3,0.1c0.2-0.1,0.1-0.6,0-0.7L33.5,19.3z M27.3,14.2h-2c-0.5,0-0.6-0.1-0.4-0.6l0.5-1.6c0.3-1,0.7-2.1,0.9-2.6
		c0.2,0.4,0.6,1.6,0.9,2.5l0.6,1.7C27.9,14.2,27.8,14.2,27.3,14.2"/>
	<path id="Shape_00000132088574249191641450000015956559502005993868_" class="st3" d="M41.1,30.8c-0.4,0.4-0.3,0.8-0.7,1.2
		c-0.2,0.2-0.4,0.2-0.6,0.2c-0.2,0-0.4-0.1-0.6-0.2c-0.2-0.2-0.2-0.4-0.2-0.6v0c0-0.4,0.5-0.8,1.8-0.8c0.2,0,0.3,0,0.5,0
		C41.3,30.6,41.2,30.7,41.1,30.8 M73.7,40.7c-0.2,0-0.4,0-0.6,0.1c0,0,2.5-2.5,2.5-6.3c0-1.7-0.4-2.4-0.5-2.4c-0.1,0-0.1,1-0.9,1.8
		c-0.6,0.6-1.5,0.6-2,1.2c0.5-1.1,0.1-2.5,0.1-2.5s0,0.8-1,1.7c-0.6,0.6-2,1-3.2,2.2c0.5-1.1,0.1-2.3,0-2.3s0,0.7-0.7,1.3
		c-0.6,0.6-1.8,0.9-2.7,1.8c-1.2,1.2-1,3.1-1,3.7v0.2c-0.2,0.1-0.3,0.3-0.5,0.4c-1.4,1.1-2.1,2.8-2.1,4.6c0,3.4,2.2,5.8,4.2,7.8
		c0.9,0.9,1.7,1.8,2.3,2.7c0.6,0.9,0.9,1.8,0.9,2.6c0,0.8-0.3,1.6-0.8,2.2c-0.6,0.7-1.3,1-2.3,1c-1.7,0-2.9-0.6-4.2-1.3
		c-0.7-0.4-1.4-0.7-2.1-1c-0.4-3.7-3-5.9-3-9.4c0-1.9,0.8-2.9,0.5-4.3c0.6,0.6,1.6,0.8,2,0.8c0.2,0,0.4-0.1,0.6-0.2c0,0,0,0,0,0
		c0,0,0,0,0,0l0,0c-0.5-0.4-0.8-1-0.8-1.7c0-1.1,0.4-2,0.4-3.2c0-0.7-0.3-1.4-0.7-1.9c0.5,0.5,1.2,0.8,1.9,0.8
		c0.4,0,0.6-0.1,0.7-0.2c0,0,0,0,0-0.1c0,0,0,0,0,0c-0.2-0.1-1.1-0.7-1.1-1.6c0-1,0.3-1.2,0.3-2c0-0.4-0.1-0.9-0.3-1.3
		c0.3,0.2,0.7,0.3,1.1,0.3c0.6,0,1-0.2,1.2-0.4c0,0,0,0,0,0s0,0,0,0c-1.6-0.1-1.4-3.8-2.9-5.2c0.1,0,0.3,0,0.4,0
		c0.5,0,1.2-0.5,1.4-0.9c0,0,0,0,0,0c0,0,0,0,0,0c0,0,0,0,0,0c-2.9-0.2-3.9-6.6-10.5-5.3c0.3-0.4,0.7-0.8,1.2-1c0,0,0,0,0,0
		c0,0,0,0,0,0c0,0,0,0,0,0C51,23.3,50.4,23,48.9,23c-1.5,0-2.8,0.7-3.7,1.8c0.4-0.7-0.1-1.6-0.5-2.1c0,0,0,0,0,0c0,0,0,0,0,0
		c0,0,0,0,0,0c-0.1,0.3-0.2,0.6-0.5,0.8c-1.2,1.2-3.3,2-3.3,4.4c0,0-0.7,0.4-1.6,1.1c-0.9,0.6-1.5,1.7-1.5,2
		c-0.4,0.2-1.9,1.3-3.1,2.5c0,0,0,0.1,0,0.1c0.1,0.2,0.2,0.4,0.3,0.6c0,0,0.1,0.1,0.1,0.1c0,0,0,0,0,0c0.2-0.2,0.4-0.4,0.6-0.5
		c-0.3,0.3-0.4,0.6-0.4,1c0,0.9,2,2.2,2.1,2c0.1-0.1-0.2-1,0.1-1.3c0.4-0.4,2-0.5,2.5-0.5c0.5,0,0.7,0.2,0.7,0.5
		c0,0.8-0.5,2.4-2,2.4c-0.6,0-1-0.6-1.1-0.5c-0.1,0.1,0,1,0.2,1.3c-0.1,0.2-0.2,0.4-0.2,0.6c0,1.1,1.8,2.5,2,2.3
		c0.1-0.1-0.4-1.4-0.1-1.4c0.2,0,0.7,0.7,1.2,0.7c0,0,0,0,0,0c0.1-0.1-0.4-0.7-0.1-0.9c0.6-0.6,2.2-1.8,2.6-1.9
		c0.8-0.3,1.3,0.3,1.3,1.2c0,1.8-1.9,2.2-3.5,3.8s-1.9,3.9-3.9,3.9c-0.3,0,1.5-0.5,2-2.2c-5.2,0-6.1-2.9-10.3-3.4
		c0-0.1,0-0.1-0.1-0.2c-0.1-0.1-1.6-1.4-1.6-4.3c0-0.3-0.1-0.5-0.2-0.7c-0.2-0.2-0.4-0.3-0.7-0.3h-0.1c-0.2-0.4-0.7-1.2-1.7-1.2
		c-1,0-1.2,0.5-1.2,0.5c0.1,0.1,0.5-0.1,1,0.4c0.2,0.2,0.4,0.6,0.5,0.9c-0.1,0.1-0.2,0.3-0.2,0.5c-0.4,0-0.8,0.1-1,0.4
		c-0.3-0.2-0.7-0.3-1.1-0.3c-1.4,0-1.7,1.3-1.7,1.4c0.1,0.1,0.3-0.2,0.8-0.2c0.5,0,1,0.4,1.3,0.6c-0.1,0.3,0,0.6,0.3,0.9
		c0,0-0.7,0.2-0.8,1.2l-0.1,0c-1.9,0.5-1.5,2-1.5,2c0.1,0,0.2-0.6,1.1-0.6c0.2,0,0.5,0,0.7,0.1c0.3,0.5,0.8,0.8,1.4,0.8
		c0.4,0,0.8-0.1,1.1-0.1c0.4,0,0.7,0.3,0.7,0.9c0,0.9-0.9,0.6-1.2,1c-0.3,0.3-0.3,0.5-0.3,0.9v0C24.1,46,24,46,23.8,46
		c-0.6,0-0.9-0.5-1-0.5c-0.1,0.1,0.2,1.8,1.5,1.8c0.3,0,0.6-0.1,0.9-0.3c0.1,0,0.2,0,0.3,0c1.2,0,1.5-1.5,3-1.5
		c1.5,0,4.4,2.1,4.8,4.7c0,0,0,0,0,0c0,0,0,0,0,0c0,0,0,0,0,0C33.8,50,34,49.5,34,49c1,0.8,1.9,1.6,2.8,2.5c0,0-6,4.6-6.3,4.8
		c-0.2,0.2-0.5,0.2-0.7,0.2c-0.8,0-1.1-1.4-2.5-1.4c-0.2,0-0.4,0.1-0.6,0.2c-0.2,0-0.4,0-0.5,0c-1.6,0-1.9,2.1-1.7,2.1
		c0.2,0,0.3-0.5,1-0.5c0.1,0,0.2,0,0.3,0c0,0.4,0.1,0.7,0.4,1c-0.3,0.1-0.5,0.4-0.7,0.7c-1.9,0.1-1.9,2.3-1.7,2.3
		c0.1,0,0.2-0.9,1.3-0.9c0.1,0,0.2,0,0.3,0.1c0.2,0.8,0.8,1.3,1.4,1.3c-0.2,0.3-0.1,0.8,0,1.2c-0.4,0.9,0.3,2.2,0.5,2.2
		c0.2,0,0-0.8,0.3-1.3c0.1,0,0.2,0,0.2,0c0.6,0,1.1-0.3,1.4-0.8c0,0,0.1,0.9,0.9,1c0.2,0.8,0.7,1.4,0.8,1.4c0.1,0-0.1-1.1,0.2-1.7
		c1.2-1.2,0.3-2.9,1.6-4.1c1.5-1.5,5.1-2.8,8.1-2.9c1.1,1.2,2.6,3.1,3.3,3.5c0,0,0,0-0.1,0.1c-1.9,1.9-5.3,0.2-7.1,2
		c-0.7,0.7-0.8,1.4-1.8,1.4c-0.3,0-0.6-0.1-0.8-0.3c0,0,0,0-0.1,0c0,0,0,0,0,0c-0.1,0.5,0,1.1,0.4,1.5c0.6,0.6,1.4,0.5,1.6,0.4
		c-0.5,0.7-1.6,0.6-2.2,0.3c0,0,0,0,0,0c0,0,0,0,0,0c0,0,0,0,0,0c0.5,1.9,2.5,1.6,2.5,1.6c0.4,2.1,2.5,2.9,2.5,4.3
		c0,0.4-0.2,0.9-0.5,1.2c-0.8,0.8-2.5,1.3-4.4,1.3c-3,0-3.1-2.1-4.7-2.1c-0.2,0-0.4,0-0.6,0.1c-0.4-0.4-0.9-0.6-1.4-0.6
		c-1,0-1.6,1.1-1.5,1.3c0.1,0.1,0.4-0.3,0.8-0.3c0.3,0,0.5,0.2,0.6,0.5c-0.1,0.1-0.2,0.2-0.2,0.3c-0.2-0.1-0.4-0.1-0.6-0.1
		c-1.9,0-1.9,2.2-1.7,2.2c0.1,0,0.4-0.8,1.3-0.7c-0.2,0.3-0.3,0.7-0.3,1.1v0.2c-0.5,0.3-0.7,0.7-0.8,1.3c0,0.8,0.2,1.2,0.3,1.2
		c0.1,0,0.3-0.9,1-1.2c0.3,0.4,0.8,0.7,1.3,0.9c-0.1,0.4-0.1,0.8-0.1,1.3c0,0.7,0.2,1.7,0.4,1.7c0.2,0,0.2-1.1,0.7-1.6
		c0.2,0.2,0.5,0.4,0.7,0.5c0.3,0.1,0.6,0.2,0.9,0.2h0.1c2.5,0,4.1-2.4,6-2.4c1.1,0,1.1,1,0.7,1.4c2.9,0,3.7-2.2,5.4-2.2
		c0.9,0,1.7,0.5,2.5,0.5c0.7,0,1.3-0.3,1.6-0.9c0,0,0,0,0-0.1h0c-1.3,0-1.9-0.6-2-1c2.4,1,3.1-0.5,3.2-0.9c0,0,0,0,0-0.1
		c0,0,0,0,0,0c-0.1,0.1-0.3,0.1-0.5,0.1c-1.3,0-2.7-1.3-2.7-3.1c0-1.7,1.2-2.7,2.3-3c0.9-2.5,2.2-3,1.7-4.6v0l0,0
		c0.2,0.4,0.4,0.8,0.4,1.2c0,1.7-1.6,2.6-1.6,5.3c0,3,2.3,2.9,2.3,4.9c0,0.5-0.1,1-0.4,1.4c0,0,0,0,0,0c0,0,0,0,0,0h0
		c0.3,0,1.4,0.1,2.4-1.7c1.4,0.7,1,1.9,0.9,2.2c0,0,0,0,0,0.1h0c1.8-0.1,2.4-2.5,2.4-2.5c1.6-0.2,2.9,0.4,2.9,1c0,1.7-3.2,5-5.6,5
		c-0.9,0-1.2-0.9-2-0.9c-0.4,0-0.8,0.2-1,0.6c-0.3-0.1-0.6-0.2-0.9-0.2c-0.7,0-1.4,0.4-1.6,1.3c-1,0.3-1.2,1.9-1.1,2
		s0.6-0.8,1.4-0.6c0.1,0.2,0.3,0.4,0.4,0.6c-0.2,0.1-0.4,0.2-0.5,0.4c-1,1-0.7,2.1-0.7,2.2c0.1,0.1,0.3-0.4,0.6-0.7
		c0.2-0.3,0.6-0.4,0.9-0.4c0.3,0.6,1.1,0.8,1.5,0.8c-0.1,0.6,0,1.6,0.1,1.7c0.1,0.1,0.6-0.8,1.2-1.3c0.4,0.3,0.8,0.4,1.3,0.4
		c1.3,0,2.5-0.6,3.4-1.6c1.4-1.4,2.3-3.6,3.5-3.6c0.7,0,0.6,0.7,0.6,0.8c1.9,0,1.1-2.3,4.7-5.9c0.4-0.4,1-0.8,1-1.3c0,0,0,0,0,0
		c0,0,0,0,0,0c-0.3,0.2-1.1,0.3-1.5-0.1c0,0,2.9-1.4,3-3.6c0,0,0,0,0,0c0,0,0,0,0,0c-0.8,0.6-2.2,0.5-2.2,0.5
		c0.7-0.5,1.2-2.1,0.5-3.6c0,0,0,0-0.1,0c0,0,0,0,0,0c-0.7,1.6-2.1,2.2-3.3,2.2c-1.8,0-3.3-1.4-3.3-3.4c0-1.7,0.5-2.5,0.8-4
		c0.4,0.2,0.8,0.4,1.2,0.6c1.4,0.7,3,1.5,5.2,1.5c0.8,0,1.5-0.2,2.2-0.5c0.6-0.3,1.2-0.7,1.6-1.2c0.8-1,1.3-2.3,1.3-3.6
		c0-2.8-1.9-4.8-3.8-6.7c-0.9-1-1.9-1.9-2.5-3c-0.7-1.1-1.1-2.2-1.1-3.4s0.7-2.4,1.5-3.2c0,0,2,1.1,4.3,1.1c2.3,0,3.7-1.7,3.7-1.7
		c1.1-1.1,2.2-0.9,2.3-1C75.1,41.2,74.5,40.7,73.7,40.7"/>
</g>
</svg>
